<?xml version="1.0" encoding="UTF-8"?>
<!DOCTYPE svg PUBLIC "-//W3C//DTD SVG 1.1//EN" "http://www.w3.org/Graphics/SVG/1.1/DTD/svg11.dtd">
<svg xmlns="http://www.w3.org/2000/svg" version="1.1" width="500px" height="500px" style="shape-rendering:geometricPrecision; text-rendering:geometricPrecision; image-rendering:optimizeQuality; fill-rule:evenodd; clip-rule:evenodd" xmlns:xlink="http://www.w3.org/1999/xlink">
<g><path style="opacity:0.994" fill="#02829a" d="M 245.5,74.5 C 247.199,74.3398 248.866,74.5065 250.5,75C 262.044,91.097 276.71,103.43 294.5,112C 310.412,118.082 326.079,124.749 341.5,132C 366.669,146.489 380.003,168.322 381.5,197.5C 395.167,197.5 408.833,197.5 422.5,197.5C 422.5,240.5 422.5,283.5 422.5,326.5C 409.833,326.5 397.167,326.5 384.5,326.5C 382.502,355.343 369.168,377.176 344.5,392C 331.576,398.641 318.242,404.308 304.5,409C 283.794,417.391 266.96,430.557 254,448.5C 252.274,449.576 250.441,449.743 248.5,449C 233.868,429.712 215.201,415.712 192.5,407C 168.973,401.161 149.139,389.328 133,371.5C 122.962,358.221 117.795,343.221 117.5,326.5C 103.833,326.5 90.1667,326.5 76.5,326.5C 76.5,283.5 76.5,240.5 76.5,197.5C 89.5043,197.667 102.504,197.5 115.5,197C 115.536,175.584 123.536,157.584 139.5,143C 144.889,138.611 150.556,134.611 156.5,131C 170.718,124.724 185.052,118.724 199.5,113C 216.33,104.834 230.83,93.6671 243,79.5C 244.094,77.9221 244.928,76.2554 245.5,74.5 Z"/></g>
<g><path style="opacity:1" fill="#dfe7e8" d="M 248.5,152.5 C 250.084,153.382 251.751,154.215 253.5,155C 252.91,156.509 252.244,158.009 251.5,159.5C 250.167,158.167 248.833,158.167 247.5,159.5C 246.756,158.009 246.09,156.509 245.5,155C 247.119,154.764 248.119,153.931 248.5,152.5 Z"/></g>
<g><path style="opacity:1" fill="#e0e7e8" d="M 255.5,186.5 C 254.504,186.414 253.671,186.748 253,187.5C 252.138,185.913 251.471,184.246 251,182.5C 249.984,183.634 249.317,183.301 249,181.5C 247.867,185.749 244.7,188.749 239.5,190.5C 243.109,186.787 246.109,182.62 248.5,178C 248,176.5 247.5,175 247,173.5C 237.046,169.928 233.046,162.928 235,152.5C 238.787,144.692 244.954,141.192 253.5,142C 238.758,145.665 235.425,153.998 243.5,167C 245.5,168 247.5,169 249.5,170C 253.836,170.534 257.836,169.867 261.5,168C 258.875,170.992 255.542,172.658 251.5,173C 250.74,174.441 250.074,175.941 249.5,177.5C 251.262,180.701 253.262,183.701 255.5,186.5 Z"/></g>
<g><path style="opacity:1" fill="#ededed" d="M 255.5,186.5 C 259.241,190.745 263.241,194.911 267.5,199C 282.59,210.752 297.09,223.252 311,236.5C 319.407,246.314 324.24,257.647 325.5,270.5C 306.404,268.831 287.404,269.664 268.5,273C 245.463,279.456 222.463,286.122 199.5,293C 191.554,294.991 183.554,296.324 175.5,297C 168.494,271.681 174.16,249.681 192.5,231C 208.571,217.965 224.238,204.465 239.5,190.5C 244.7,188.749 247.867,185.749 249,181.5C 249.317,183.301 249.984,183.634 251,182.5C 251.471,184.246 252.138,185.913 253,187.5C 253.671,186.748 254.504,186.414 255.5,186.5 Z"/></g>
<g><path style="opacity:1" fill="#eaecec" d="M 353.5,284.5 C 354.66,286.203 353.993,286.869 351.5,286.5C 330.039,283.45 308.706,284.283 287.5,289C 263.758,295.748 240.091,302.748 216.5,310C 207.194,311.794 197.861,313.461 188.5,315C 174.842,316.821 161.842,314.988 149.5,309.5C 149.5,308.5 149.5,307.5 149.5,306.5C 158.554,306.194 167.554,306.528 176.5,307.5C 177.696,307.154 177.696,306.654 176.5,306C 178.441,305.257 180.274,305.424 182,306.5C 182.698,305.309 183.531,304.309 184.5,303.5C 213.727,295.059 243.061,286.892 272.5,279C 300.063,273.291 327.063,275.124 353.5,284.5 Z"/></g>
<g><path style="opacity:1" fill="#b4d2d8" d="M 353.5,284.5 C 357.812,286.321 362.145,288.154 366.5,290C 364.833,290.667 363.167,290.667 361.5,290C 358.058,288.816 354.725,287.65 351.5,286.5C 353.993,286.869 354.66,286.203 353.5,284.5 Z"/></g>
<g><path style="opacity:1" fill="#6cb0be" d="M 339.5,293.5 C 343.79,293.198 347.79,293.864 351.5,295.5C 347.295,295.283 343.295,294.617 339.5,293.5 Z"/></g>
<g><path style="opacity:1" fill="#e7eaeb" d="M 339.5,293.5 C 343.295,294.617 347.295,295.283 351.5,295.5C 354.877,295.959 358.211,296.626 361.5,297.5C 360.791,298.404 359.791,298.737 358.5,298.5C 338.19,297.057 318.523,299.89 299.5,307C 280.16,315.448 260.493,323.114 240.5,330C 222.045,335.663 204.045,334.663 186.5,327C 185.304,326.346 185.304,325.846 186.5,325.5C 190.508,327.003 194.675,327.67 199,327.5C 205.514,327.181 212.014,326.681 218.5,326C 236.554,320.401 254.221,313.735 271.5,306C 281.668,302.207 292.001,298.874 302.5,296C 314.744,293.958 327.078,293.125 339.5,293.5 Z"/></g>
<g><path style="opacity:1" fill="#87bdc8" d="M 361.5,297.5 C 363.767,298.423 366.1,299.256 368.5,300C 364.888,300.674 361.554,300.174 358.5,298.5C 359.791,298.737 360.791,298.404 361.5,297.5 Z"/></g>
<g><path style="opacity:1" fill="#d9e4e6" d="M 184.5,303.5 C 183.531,304.309 182.698,305.309 182,306.5C 180.274,305.424 178.441,305.257 176.5,306C 177.696,306.654 177.696,307.154 176.5,307.5C 167.554,306.528 158.554,306.194 149.5,306.5C 149.5,307.5 149.5,308.5 149.5,309.5C 142.727,307.188 136.394,304.022 130.5,300C 129.304,299.346 129.304,298.846 130.5,298.5C 144.079,305.209 158.412,307.376 173.5,305C 177.17,304.452 180.837,303.952 184.5,303.5 Z"/></g>
</svg>
