<?xml version="1.0" encoding="UTF-8"?>
<!DOCTYPE svg PUBLIC "-//W3C//DTD SVG 1.1//EN" "http://www.w3.org/Graphics/SVG/1.1/DTD/svg11.dtd">
<svg xmlns="http://www.w3.org/2000/svg" version="1.1" width="500px" height="500px" style="shape-rendering:geometricPrecision; text-rendering:geometricPrecision; image-rendering:optimizeQuality; fill-rule:evenodd; clip-rule:evenodd" xmlns:xlink="http://www.w3.org/1999/xlink">
<g><path style="opacity:0.622" fill="#ededed" d="M 123.5,164.5 C 129.361,165.359 130.028,167.693 125.5,171.5C 124.575,170.359 123.741,170.359 123,171.5C 120.898,168.874 121.065,166.541 123.5,164.5 Z"/></g>
<g><path style="opacity:0.997" fill="#ededed" d="M 123.5,157.5 C 125.696,157.565 127.696,158.232 129.5,159.5C 124.883,160.139 121.216,162.305 118.5,166C 118.773,174.333 123.106,176.999 131.5,174C 132.333,173.167 133.167,172.333 134,171.5C 134.167,172 134.333,172.5 134.5,173C 132.864,176.473 130.197,178.639 126.5,179.5C 126.372,181.655 126.872,183.655 128,185.5C 139.078,196.417 150.578,206.751 162.5,216.5C 167.582,221.915 170.915,228.248 172.5,235.5C 215.172,235.833 257.839,235.5 300.5,234.5C 305.273,228.289 310.44,227.955 316,233.5C 318.608,240.669 316.108,245.002 308.5,246.5C 304.876,246.355 302.209,244.688 300.5,241.5C 252.4,240.778 204.4,240.111 156.5,239.5C 153.265,240.031 150.098,240.698 147,241.5C 146.667,241.167 146.333,240.833 146,240.5C 126.966,244.936 107.799,250.103 88.5,256C 84.8276,257.285 81.1609,257.452 77.5,256.5C 72.7293,240.982 75.896,227.315 87,215.5C 95.0658,208.52 103.232,201.687 111.5,195C 115.369,191.466 118.869,187.633 122,183.5C 122.781,182.056 122.614,180.723 121.5,179.5C 113.892,175.248 112.058,169.582 116,162.5C 118.17,160.177 120.67,158.51 123.5,157.5 Z"/></g>
<g><path style="opacity:0.899" fill="#eeeeee" d="M 352.5,186.5 C 357.486,186.305 359.152,188.472 357.5,193C 350.539,194.519 348.872,192.352 352.5,186.5 Z"/></g>
<g><path style="opacity:0.901" fill="#eeeeee" d="M 340.5,187.5 C 343.167,187.5 345.833,187.5 348.5,187.5C 348.166,198.518 347.499,209.518 346.5,220.5C 344.5,221.833 342.5,221.833 340.5,220.5C 340.167,216.833 339.833,213.167 339.5,209.5C 339.834,202.163 340.167,194.83 340.5,187.5 Z"/></g>
<g><path style="opacity:0.924" fill="#eeeeee" d="M 175.5,188.5 C 178.777,188.216 181.943,188.549 185,189.5C 186.144,194.767 187.978,199.767 190.5,204.5C 191.086,204.291 191.586,203.957 192,203.5C 193.603,198.859 195.103,194.192 196.5,189.5C 199.768,188.513 203.102,188.18 206.5,188.5C 207.875,198.854 208.708,209.187 209,219.5C 206.701,221.536 204.201,221.869 201.5,220.5C 200.833,214.5 200.167,208.5 199.5,202.5C 193.823,221.136 187.99,221.136 182,202.5C 180.334,208.478 180.168,214.478 181.5,220.5C 174.58,223.206 171.58,220.873 172.5,213.5C 172.787,205.027 173.787,196.693 175.5,188.5 Z"/></g>
<g><path style="opacity:0.924" fill="#eeeeee" d="M 252.5,188.5 C 255.898,188.18 259.232,188.513 262.5,189.5C 264.051,194.728 266.051,199.728 268.5,204.5C 270.882,199.693 272.882,194.693 274.5,189.5C 277.768,188.513 281.102,188.18 284.5,188.5C 286.165,199.14 286.499,209.807 285.5,220.5C 277.676,221.998 275.343,218.998 278.5,211.5C 278.565,208.375 278.065,205.375 277,202.5C 271.333,221.167 265.667,221.167 260,202.5C 258.873,208.356 258.04,214.356 257.5,220.5C 255.5,221.833 253.5,221.833 251.5,220.5C 250.423,209.802 250.756,199.135 252.5,188.5 Z"/></g>
<g><path style="opacity:0.911" fill="#eeeeee" d="M 211.5,195.5 C 214.167,195.5 216.833,195.5 219.5,195.5C 218.491,200.796 218.324,206.129 219,211.5C 223.028,215.911 226.028,215.244 228,209.5C 228.333,204.826 228.167,200.16 227.5,195.5C 230.167,195.5 232.833,195.5 235.5,195.5C 236.554,204.806 236.721,214.139 236,223.5C 234.73,227.77 231.896,230.27 227.5,231C 222.859,231.317 218.359,231.484 214,231.5C 212.095,230.842 210.595,229.675 209.5,228C 210.406,226.301 210.739,224.467 210.5,222.5C 214.711,224.078 219.044,224.578 223.5,224C 226.24,222.95 227.74,221.117 228,218.5C 222.094,222.739 216.761,222.072 212,216.5C 210.244,209.502 210.077,202.502 211.5,195.5 Z"/></g>
<g><path style="opacity:0.903" fill="#eeeeee" d="M 289.5,195.5 C 291.833,195.5 294.167,195.5 296.5,195.5C 296.728,199.39 296.394,203.224 295.5,207C 295.744,211.021 297.744,213.521 301.5,214.5C 304.203,213.961 305.703,212.295 306,209.5C 306.333,204.826 306.167,200.16 305.5,195.5C 308.167,195.5 310.833,195.5 313.5,195.5C 314.455,203.814 314.622,212.148 314,220.5C 310.606,222.275 307.94,221.608 306,218.5C 298.739,223.351 293.073,222.018 289,214.5C 288.21,208.085 288.376,201.752 289.5,195.5 Z"/></g>
<g><path style="opacity:0.885" fill="#eeeeee" d="M 320.5,195.5 C 325.762,195.195 330.928,195.529 336,196.5C 336.814,198.902 336.647,201.235 335.5,203.5C 331.515,201.163 327.515,200.996 323.5,203C 327.385,204.853 331.385,206.52 335.5,208C 339.105,211.315 339.439,214.982 336.5,219C 330.303,221.79 323.969,222.123 317.5,220C 315.679,217.544 315.012,214.711 315.5,211.5C 317.783,211.608 319.783,212.441 321.5,214C 333.091,214.105 333.091,212.438 321.5,209C 316.857,206.928 315.357,203.428 317,198.5C 318.145,197.364 319.312,196.364 320.5,195.5 Z"/></g>
<g><path style="opacity:0.878" fill="#eeeeee" d="M 351.5,195.5 C 353.5,195.5 355.5,195.5 357.5,195.5C 358.741,203.819 358.741,212.152 357.5,220.5C 355.5,221.833 353.5,221.833 351.5,220.5C 350.199,212.108 350.199,203.775 351.5,195.5 Z"/></g>
<g><path style="opacity:0.898" fill="#eeeeee" d="M 360.5,195.5 C 363.685,195.02 366.519,195.686 369,197.5C 373.962,194.351 378.295,195.018 382,199.5C 382.5,197.667 383.667,196.5 385.5,196C 392.413,193.912 396.58,196.412 398,203.5C 398.667,209.167 398.667,214.833 398,220.5C 395.568,221.45 393.068,221.45 390.5,220.5C 392.08,214.706 391.746,209.04 389.5,203.5C 387.389,202.152 385.555,202.485 384,204.5C 383.829,209.864 383.329,215.198 382.5,220.5C 380.5,221.833 378.5,221.833 376.5,220.5C 375.671,215.533 375.171,210.533 375,205.5C 372.667,201.5 370.333,201.5 368,205.5C 367.829,210.533 367.329,215.533 366.5,220.5C 360.204,221.859 357.871,219.192 359.5,212.5C 360.033,206.842 360.366,201.175 360.5,195.5 Z"/></g>
<g><path style="opacity:0.876" fill="#eeeeee" d="M 326.5,229.5 C 331.536,228.388 335.202,230.055 337.5,234.5C 349.486,235.333 361.486,235.833 373.5,236C 383.444,237.941 389.944,243.775 393,253.5C 393.5,262.827 393.666,272.161 393.5,281.5C 391.833,281.5 390.167,281.5 388.5,281.5C 388.666,272.494 388.5,263.494 388,254.5C 385.432,247.599 380.598,243.099 373.5,241C 361.486,240.167 349.486,240.334 337.5,241.5C 333.477,247.337 328.644,248.003 323,243.5C 320.445,237.782 321.612,233.116 326.5,229.5 Z"/></g>
<g><path style="opacity:0.981" fill="#ededed" d="M 151.5,241.5 C 168.748,240.849 185.081,244.349 200.5,252C 202.815,253.368 202.815,254.201 200.5,254.5C 186.154,249.471 171.487,248.305 156.5,251C 139.301,254.883 122.301,259.55 105.5,265C 90.4577,269.531 75.4577,269.531 60.5,265C 54.997,263.008 50.3304,259.841 46.5,255.5C 46.8333,255.167 47.1667,254.833 47.5,254.5C 51.8862,257.076 56.5529,259.076 61.5,260.5C 66.9373,261.781 72.4373,261.781 78,260.5C 94.9752,256.615 111.642,251.948 128,246.5C 129.147,247.458 130.147,247.125 131,245.5C 132.147,246.458 133.147,246.125 134,244.5C 134.414,244.957 134.914,245.291 135.5,245.5C 139.954,243.703 144.454,243.036 149,243.5C 150.301,243.361 151.134,242.695 151.5,241.5 Z"/></g>
<g><path style="opacity:0.794" fill="#eeeeee" d="M 258.5,244.5 C 262.884,244.532 264.551,246.532 263.5,250.5C 261.167,251.833 258.833,251.833 256.5,250.5C 255.418,247.982 256.085,245.982 258.5,244.5 Z"/></g>
<g><path style="opacity:0.901" fill="#eeeeee" d="M 212.5,246.5 C 215.448,246.223 218.281,246.556 221,247.5C 225.799,257.063 229.299,267.063 231.5,277.5C 229.488,278.014 227.488,278.18 225.5,278C 223.875,275.89 222.542,273.557 221.5,271C 218.167,270.333 214.833,270.333 211.5,271C 211.427,277.783 208.26,279.949 202,277.5C 204.316,266.844 207.816,256.511 212.5,246.5 Z M 216.5,255.5 C 218.277,258.505 219.277,261.838 219.5,265.5C 217.25,265.819 215.25,265.319 213.5,264C 214.424,261.135 215.424,258.302 216.5,255.5 Z"/></g>
<g><path style="opacity:0.884" fill="#eeeeee" d="M 292.5,247.5 C 294.833,247.5 297.167,247.5 299.5,247.5C 299.5,249.5 299.5,251.5 299.5,253.5C 302.167,253.5 304.833,253.5 307.5,253.5C 307.5,255.167 307.5,256.833 307.5,258.5C 304.753,258.187 302.086,258.52 299.5,259.5C 295.808,269.198 298.808,272.864 308.5,270.5C 308.393,268.097 309.393,266.264 311.5,265C 315.578,263.56 319.578,262.06 323.5,260.5C 322.167,260.167 320.833,259.833 319.5,259.5C 316.494,260.179 313.494,260.846 310.5,261.5C 310.055,258.635 310.722,256.135 312.5,254C 317.167,253.333 321.833,253.333 326.5,254C 328.726,255.227 330.226,257.061 331,259.5C 332.303,265.502 332.469,271.502 331.5,277.5C 327.621,279.509 325.121,278.509 324,274.5C 318.917,279.727 313.917,279.727 309,274.5C 308.626,275.416 308.126,276.25 307.5,277C 303.148,278.895 298.815,278.895 294.5,277C 293.299,276.097 292.465,274.931 292,273.5C 291.501,268.511 291.334,263.511 291.5,258.5C 289.833,258.5 288.167,258.5 286.5,258.5C 286.5,256.833 286.5,255.167 286.5,253.5C 291.161,254.168 293.161,252.168 292.5,247.5 Z M 319.5,265.5 C 321.948,265.085 323.281,266.085 323.5,268.5C 321.974,271.092 319.641,272.092 316.5,271.5C 316.028,268.642 317.028,266.642 319.5,265.5 Z"/></g>
<g><path style="opacity:0.906" fill="#eeeeee" d="M 364.5,247.5 C 366.527,247.338 368.527,247.505 370.5,248C 371.747,249.458 371.747,250.958 370.5,252.5C 373.428,253.484 376.428,253.817 379.5,253.5C 379.5,255.167 379.5,256.833 379.5,258.5C 376.813,258.336 374.146,258.503 371.5,259C 370.167,263 370.167,267 371.5,271C 374.192,271.43 376.859,271.263 379.5,270.5C 379.5,272.833 379.5,275.167 379.5,277.5C 375.854,278.283 372.188,278.45 368.5,278C 366.714,277.215 365.214,276.049 364,274.5C 363.501,269.177 363.334,263.844 363.5,258.5C 361.833,258.5 360.167,258.5 358.5,258.5C 358.5,256.833 358.5,255.167 358.5,253.5C 360.167,253.5 361.833,253.5 363.5,253.5C 363.325,251.379 363.659,249.379 364.5,247.5 Z"/></g>
<g><path style="opacity:0.887" fill="#eeeeee" d="M 237.5,253.5 C 242.179,253.334 246.845,253.501 251.5,254C 253.907,256.363 254.074,258.863 252,261.5C 248.201,258.734 244.367,258.4 240.5,260.5C 244.06,262.146 247.727,263.646 251.5,265C 255.032,268.39 255.366,272.057 252.5,276C 246.253,279.153 239.92,279.32 233.5,276.5C 232.167,273.833 232.167,271.167 233.5,268.5C 236.494,270.247 239.661,271.58 243,272.5C 244.395,272.22 245.562,271.553 246.5,270.5C 242.254,268.459 238.087,266.126 234,263.5C 232.25,259.253 233.417,255.92 237.5,253.5 Z"/></g>
<g><path style="opacity:0.936" fill="#eeeeee" d="M 256.5,253.5 C 258.833,253.5 261.167,253.5 263.5,253.5C 263.666,261.507 263.5,269.507 263,277.5C 261,278.833 259,278.833 257,277.5C 256.5,269.507 256.334,261.507 256.5,253.5 Z"/></g>
<g><path style="opacity:0.897" fill="#eeeeee" d="M 270.5,253.5 C 275.43,253.197 280.263,253.531 285,254.5C 285.814,256.902 285.647,259.235 284.5,261.5C 282.12,260.206 279.62,259.206 277,258.5C 275.605,258.78 274.438,259.447 273.5,260.5C 277.692,262.4 281.859,264.4 286,266.5C 288.074,269.791 287.908,272.957 285.5,276C 279.253,279.153 272.92,279.32 266.5,276.5C 265.167,273.833 265.167,271.167 266.5,268.5C 269.429,270.312 272.595,271.646 276,272.5C 277.395,272.22 278.562,271.553 279.5,270.5C 276.568,268.346 273.234,266.846 269.5,266C 264.004,261.324 264.338,257.157 270.5,253.5 Z"/></g>
<g><path style="opacity:0.881" fill="#eeeeee" d="M 334.5,253.5 C 336.833,253.5 339.167,253.5 341.5,253.5C 341.443,257.133 342.443,257.3 344.5,254C 348.572,253.044 352.405,253.544 356,255.5C 359.182,262.503 360.182,269.836 359,277.5C 356.868,278.78 354.702,278.78 352.5,277.5C 351.672,272.868 351.172,268.202 351,263.5C 348.523,258.632 345.523,258.299 342,262.5C 341.667,267.5 341.333,272.5 341,277.5C 338.667,278.833 336.333,278.833 334,277.5C 333.343,269.477 333.51,261.477 334.5,253.5 Z"/></g>
<g><path style="opacity:0.971" fill="#ededed" d="M 166.5,252.5 C 171.834,253.782 177.168,253.782 182.5,252.5C 183.82,254.27 185.32,254.603 187,253.5C 191.604,254.59 196.104,256.09 200.5,258C 201.451,258.718 201.617,259.551 201,260.5C 192.255,257.108 183.088,256.774 173.5,259.5C 172.914,259.291 172.414,258.957 172,258.5C 156.121,263.358 140.621,269.191 125.5,276C 115.073,280.074 104.407,281.074 93.5,279C 88.2754,277.721 83.6087,275.388 79.5,272C 84.2443,272.943 89.411,273.776 95,274.5C 99.1888,274.187 103.356,273.687 107.5,273C 108.253,271.513 109.086,271.346 110,272.5C 123.239,266.18 136.239,260.847 149,256.5C 149.333,256.833 149.667,257.167 150,257.5C 155.681,255.222 161.181,253.555 166.5,252.5 Z"/></g>
</svg>
