<?xml version="1.0" encoding="UTF-8"?>
<!DOCTYPE svg PUBLIC "-//W3C//DTD SVG 1.1//EN" "http://www.w3.org/Graphics/SVG/1.1/DTD/svg11.dtd">
<svg xmlns="http://www.w3.org/2000/svg" version="1.1" width="500px" height="500px" style="shape-rendering:geometricPrecision; text-rendering:geometricPrecision; image-rendering:optimizeQuality; fill-rule:evenodd; clip-rule:evenodd" xmlns:xlink="http://www.w3.org/1999/xlink">
<g><path style="opacity:0.99" fill="#018098" d="M 247.5,127.5 C 249.205,128.535 250.872,128.535 252.5,127.5C 254.711,128.123 256.711,129.123 258.5,130.5C 251.558,129.632 245.558,131.965 240.5,137.5C 239.406,139.414 238.406,141.248 237.5,143C 237.638,145.862 237.638,148.695 237.5,151.5C 237.977,152.478 238.643,153.311 239.5,154C 239.167,154.333 238.833,154.667 238.5,155C 241.995,158.384 245.328,161.218 248.5,163.5C 251.833,163.5 255.167,163.5 258.5,163.5C 259.77,162.438 260.937,161.438 262,160.5C 264.317,159.24 266.651,157.24 269,154.5C 269.167,154.833 269.333,155.167 269.5,155.5C 268.373,159.652 265.707,163.152 261.5,166C 259.269,166.622 257.435,167.789 256,169.5C 254.989,168.663 253.822,168.33 252.5,168.5C 251.992,171.176 251.825,173.843 252,176.5C 259.283,186.013 267.283,195.013 276,203.5C 276.333,203.167 276.667,202.833 277,202.5C 280.5,206 284,209.5 287.5,213C 304.141,224.298 318.974,237.798 332,253.5C 334.19,258.839 337.19,264.173 341,269.5C 342.871,275.962 344.705,282.129 346.5,288C 345.44,289.298 344.274,290.465 343,291.5C 328.495,288.957 313.995,288.957 299.5,291.5C 298.833,291.167 298.167,290.833 297.5,290.5C 291.442,291.209 285.275,292.543 279,294.5C 277.062,293.14 275.396,293.473 274,295.5C 272.062,294.14 270.396,294.473 269,296.5C 267.286,295.075 265.953,295.408 265,297.5C 262.789,297.337 260.622,297.337 258.5,297.5C 257.522,297.977 256.689,298.643 256,299.5C 255.667,299.167 255.333,298.833 255,298.5C 249.488,300.256 244.155,302.256 239,304.5C 236.4,303.693 234.066,304.36 232,306.5C 230.097,306.306 228.263,306.306 226.5,306.5C 225.029,307.417 223.529,308.417 222,309.5C 221.667,309.167 221.333,308.833 221,308.5C 217.054,310.319 213.054,311.985 209,313.5C 207.605,312.185 206.605,312.519 206,314.5C 204.097,314.306 202.263,314.306 200.5,314.5C 199.803,316.385 198.803,316.718 197.5,315.5C 196.295,317.138 194.962,317.471 193.5,316.5C 192.808,317.025 192.308,317.692 192,318.5C 190.286,317.075 188.953,317.408 188,319.5C 187.667,319.167 187.333,318.833 187,318.5C 180.562,320.314 174.228,322.314 168,324.5C 165.733,323.065 163.733,323.398 162,325.5C 160,324.833 158,324.167 156,323.5C 155.727,321.671 154.893,320.171 153.5,319C 154.866,316.618 154.533,314.452 152.5,312.5C 151.327,303.143 151.327,293.81 152.5,284.5C 154.539,281.852 155.206,279.018 154.5,276C 160.629,261.181 169.629,247.848 181.5,236C 195.66,224.091 209.993,212.424 224.5,201C 231.463,194.039 238.13,186.872 244.5,179.5C 247.876,171.86 245.876,167.36 238.5,166C 235.904,163.881 233.571,161.547 231.5,159C 231.833,158.667 232.167,158.333 232.5,158C 231.636,156.863 230.636,155.53 229.5,154C 229.786,150.62 229.786,147.286 229.5,144C 231.085,140.3 233.418,136.633 236.5,133C 239.985,130.591 243.652,128.757 247.5,127.5 Z"/></g>
<g><path style="opacity:0.866" fill="#08778e" d="M 248.5,140.5 C 250.561,142.381 252.894,144.047 255.5,145.5C 253.561,147.122 253.228,148.956 254.5,151C 252.76,152.827 251.093,152.66 249.5,150.5C 247.907,152.66 246.24,152.827 244.5,151C 245.772,148.956 245.439,147.122 243.5,145.5C 245.844,144.449 247.511,142.782 248.5,140.5 Z"/></g>
<g><path style="opacity:0.955" fill="#057c93" d="M 306.5,295.5 C 315.186,295.581 323.853,295.581 332.5,295.5C 356.757,298.032 380.09,305.199 402.5,317C 403.5,317.833 404.5,318.667 405.5,319.5C 405.167,319.833 404.833,320.167 404.5,320.5C 392.17,313.848 379.17,310.515 365.5,310.5C 353.697,308.222 341.864,308.222 330,310.5C 329.228,310.355 328.561,310.022 328,309.5C 325.539,310.218 323.039,310.885 320.5,311.5C 319.914,311.291 319.414,310.957 319,310.5C 316.667,311.167 314.333,311.833 312,312.5C 310.853,311.542 309.853,311.875 309,313.5C 306.733,312.065 304.733,312.398 303,314.5C 300.978,313.009 299.312,313.342 298,315.5C 296.062,314.14 294.396,314.473 293,316.5C 291.221,315.521 289.555,315.854 288,317.5C 286.413,316.273 285.079,316.606 284,318.5C 283.586,318.043 283.086,317.709 282.5,317.5C 274.946,320.073 267.446,322.74 260,325.5C 258.605,324.185 257.605,324.519 257,326.5C 255.333,326.5 253.667,326.5 252,326.5C 245.042,329.14 238.042,331.807 231,334.5C 229.605,333.185 228.605,333.519 228,335.5C 226.097,335.306 224.263,335.306 222.5,335.5C 221.497,337.542 220.163,337.875 218.5,336.5C 217.808,337.025 217.308,337.692 217,338.5C 216.667,338.167 216.333,337.833 216,337.5C 208.159,339.917 200.326,342.25 192.5,344.5C 190.249,343.135 188.249,343.469 186.5,345.5C 183.917,344.062 181.583,344.396 179.5,346.5C 178.393,345.978 177.226,345.645 176,345.5C 174,346.167 172,346.833 170,347.5C 164.162,346.192 158.329,346.192 152.5,347.5C 150.326,345.56 147.993,345.226 145.5,346.5C 143.548,344.467 141.382,344.134 139,345.5C 128.788,342.202 118.288,337.702 107.5,332C 102.258,329.218 97.5915,325.718 93.5,321.5C 93.8333,321.167 94.1667,320.833 94.5,320.5C 99.5867,322.792 104.42,325.458 109,328.5C 110.525,328.888 112.192,328.888 114,328.5C 114.853,330.125 115.853,330.458 117,329.5C 119.496,330.28 121.996,331.28 124.5,332.5C 134.65,332.537 144.817,332.537 155,332.5C 156.711,332.561 158.044,331.894 159,330.5C 162.365,330.802 165.698,330.802 169,330.5C 170.261,330.241 171.261,329.574 172,328.5C 173.68,329.603 175.18,329.27 176.5,327.5C 178.306,328.859 179.806,328.525 181,326.5C 181.333,326.833 181.667,327.167 182,327.5C 184.605,325.68 187.272,325.014 190,325.5C 193,324.167 196,322.833 199,321.5C 201.6,322.307 203.934,321.64 206,319.5C 207.903,319.694 209.737,319.694 211.5,319.5C 212.197,317.615 213.197,317.282 214.5,318.5C 220.428,316.235 226.261,313.902 232,311.5C 234.6,312.307 236.934,311.64 239,309.5C 240.903,309.694 242.737,309.694 244.5,309.5C 245.192,308.975 245.692,308.308 246,307.5C 246.561,308.022 247.228,308.355 248,308.5C 254.933,305.963 261.6,303.63 268,301.5C 269.938,302.86 271.604,302.527 273,300.5C 275.462,300.912 277.795,300.912 280,300.5C 281.555,298.854 283.221,298.521 285,299.5C 287.099,297.466 289.432,297.132 292,298.5C 293.559,297.971 295.059,297.304 296.5,296.5C 297.086,296.709 297.586,297.043 298,297.5C 300.939,296.872 303.772,296.205 306.5,295.5 Z"/></g>
<g><path style="opacity:0.946" fill="#067b92" d="M 332.5,317.5 C 343.494,318.809 354.494,318.809 365.5,317.5C 369.02,318.771 372.52,319.771 376,320.5C 376.772,320.355 377.439,320.022 378,319.5C 385.128,321.218 392.628,323.718 400.5,327C 401.759,327.923 403.092,328.757 404.5,329.5C 404,329.833 403.5,330.167 403,330.5C 398.782,329.307 394.615,327.973 390.5,326.5C 389.914,326.709 389.414,327.043 389,327.5C 386.984,325.249 384.651,324.916 382,326.5C 375.841,323.862 369.674,323.862 363.5,326.5C 359.986,325.003 356.653,325.336 353.5,327.5C 352.707,327.069 351.873,326.735 351,326.5C 347.274,327.402 343.607,328.402 340,329.5C 339.667,329.167 339.333,328.833 339,328.5C 332.074,330.213 325.408,332.546 319,335.5C 317.605,334.185 316.605,334.519 316,336.5C 314.605,335.185 313.605,335.519 313,337.5C 312.667,337.167 312.333,336.833 312,336.5C 306.059,338.638 300.393,341.304 295,344.5C 293.002,343.729 291.335,344.395 290,346.5C 288.605,345.185 287.605,345.519 287,347.5C 286.667,347.167 286.333,346.833 286,346.5C 280.039,349.701 274.039,352.701 268,355.5C 266.002,354.729 264.335,355.395 263,357.5C 262.667,357.167 262.333,356.833 262,356.5C 256.968,358.84 251.968,361.174 247,363.5C 245.605,362.185 244.605,362.519 244,364.5C 242.413,363.273 241.079,363.606 240,365.5C 238.413,364.273 237.079,364.606 236,366.5C 234.32,365.397 232.82,365.73 231.5,367.5C 230.833,367.167 230.167,366.833 229.5,366.5C 226.156,368.528 222.656,369.194 219,368.5C 216.241,369.323 213.407,369.99 210.5,370.5C 207.324,369.219 204.158,369.219 201,370.5C 197.141,370.049 193.474,369.049 190,367.5C 189.667,367.833 189.333,368.167 189,368.5C 187.195,367.59 185.362,366.59 183.5,365.5C 182.197,366.718 181.197,366.385 180.5,364.5C 179.914,364.709 179.414,365.043 179,365.5C 174.396,362.782 169.563,360.449 164.5,358.5C 163.5,357.5 162.5,356.5 161.5,355.5C 163.892,354.792 166.059,355.458 168,357.5C 168.333,357.167 168.667,356.833 169,356.5C 170.079,358.394 171.413,358.727 173,357.5C 175.496,358.28 177.996,359.28 180.5,360.5C 186.275,359.984 192.108,359.984 198,360.5C 200.379,360.518 202.546,359.851 204.5,358.5C 206.644,359.953 208.477,359.62 210,357.5C 210.561,358.022 211.228,358.355 212,358.5C 218.519,356.216 225.519,353.549 233,350.5C 235.184,351.108 237.184,350.441 239,348.5C 240.147,349.458 241.147,349.125 242,347.5C 242.333,347.833 242.667,348.167 243,348.5C 249.259,344.774 255.592,342.107 262,340.5C 271.249,335.847 280.582,332.181 290,329.5C 290.853,327.875 291.853,327.542 293,328.5C 300.429,325.224 308.095,322.557 316,320.5C 316.414,320.957 316.914,321.291 317.5,321.5C 320.099,320.809 322.766,319.809 325.5,318.5C 328.25,320.078 330.583,319.745 332.5,317.5 Z"/></g>
</svg>
